<?xml version="1.0" encoding="UTF-8" standalone="no"?>

<svg xmlns="http://www.w3.org/2000/svg" version="1.1" xmlns:xlink="http://www.w3.org/1999/xlink" xmlns:svgjs="http://svgjs.dev/svgjs" width="1500" height="1500" viewBox="0 0 1500 1500"><g transform="matrix(1,0,0,1,-0.3236151603499593,-0.3236151603499593)"><svg viewBox="0 0 343 343" data-background-color="#e8e7d5" preserveAspectRatio="xMidYMid meet" height="1500" width="1500" xmlns="http://www.w3.org/2000/svg" xmlns:xlink="http://www.w3.org/1999/xlink"><g id="tight-bounds" transform="matrix(1,0,0,1,0.07400000000001228,0.07400000000001228)"><svg viewBox="0 0 342.8515585177538 342.8515585177538" height="342.8515585177538" width="342.8515585177538"><g><svg></svg></g><g><svg viewBox="0 0 342.8515585177538 342.8515585177538" height="342.8515585177538" width="342.8515585177538"><g><path d="M0 171.426c0-94.676 76.75-171.426 171.426-171.426 94.676 0 171.426 76.75 171.426 171.426 0 94.676-76.75 171.426-171.426 171.426-94.676 0-171.426-76.75-171.426-171.426zM171.426 339.342c92.737 0 167.916-75.179 167.916-167.916 0-92.737-75.179-167.916-167.916-167.916-92.737 0-167.916 75.179-167.916 167.916 0 92.737 75.179 167.916 167.916 167.916z" data-fill-palette-color="tertiary" fill="#b2bbda" stroke="transparent"></path><ellipse rx="164.56874808852183" ry="164.56874808852183" cx="171.4257792588769" cy="171.4257792588769" fill="#b2bbda" stroke="transparent" stroke-width="0" fill-opacity="1" data-fill-palette-color="tertiary"></ellipse></g><g transform="matrix(1,0,0,1,64.84655864529836,120.47883410954407)"><svg viewBox="0 0 213.15844122715708 101.89389029866567" height="101.89389029866567" width="213.15844122715708"><g><svg viewBox="0 0 213.15844122715708 101.89389029866567" height="101.89389029866567" width="213.15844122715708"><g><svg viewBox="0 0 213.15844122715708 101.89389029866567" height="101.89389029866567" width="213.15844122715708"><g transform="matrix(1,0,0,1,0,62.97451198471846)"><svg viewBox="0 0 213.15844122715708 38.91937831394721" height="38.91937831394721" width="213.15844122715708"><g id="textblocktransform"><svg viewBox="0 0 213.15844122715708 38.91937831394721" height="38.91937831394721" width="213.15844122715708" id="textblock"><g><svg viewBox="0 0 213.15844122715708 38.91937831394721" height="38.91937831394721" width="213.15844122715708"><g transform="matrix(1,0,0,1,0,0)"><svg width="213.15844122715708" viewBox="1.53 -31.95 177.98 32.5" height="38.91937831394721" data-palette-color="#e8e7d5"><path d="M7.8 0.4L7.8 0.4Q6.18 0.4 4.63 0.13 3.08-0.15 1.83-0.65L1.83-0.65 1.53-4.38Q2.83-3.78 4.19-3.49 5.55-3.2 6.98-3.2L6.98-3.2Q10.33-3.2 11.6-4.75 12.88-6.3 12.88-9.47L12.88-9.47 12.88-31.95 17.03-31.95 17.03-9.22Q17.03-4.5 14.93-2.05 12.83 0.4 7.8 0.4ZM38.35-17.35L34.22 0 28 0 22-24.4 26.17-24.4 30.97-2.95 31.45-2.95 36.45-23.75 42.17-23.75 47.17-2.95 47.62-2.95 52.47-24.4 56.62-24.4 50.62 0 44.42 0 40.3-17.35 39.5-20.83 39.12-20.83 38.35-17.35ZM79.82-15.8L79.82 0 75.8 0 75.97-5.93 75.82-6.55 75.82-14.33 75.85-15.75Q75.85-18.73 74.33-20.15 72.82-21.58 69.55-21.58L69.55-21.58Q66.92-21.58 64.73-20.83 62.55-20.08 60.85-19.07L60.85-19.07 61.22-22.53Q62.17-23.1 63.48-23.66 64.8-24.23 66.48-24.6 68.17-24.98 70.2-24.98L70.2-24.98Q72.82-24.98 74.66-24.34 76.5-23.7 77.63-22.5 78.77-21.3 79.3-19.6 79.82-17.9 79.82-15.8L79.82-15.8ZM67.4 0.53L67.4 0.53Q63.77 0.53 61.83-1.24 59.9-3 59.9-6.28L59.9-6.28 59.9-7Q59.9-10.38 61.98-12.04 64.07-13.7 68.62-14.35L68.62-14.35 76.35-15.45 76.57-12.5 69.12-11.43Q66.32-11.03 65.12-10.06 63.92-9.1 63.92-7.23L63.92-7.23 63.92-6.83Q63.92-4.9 65.11-3.88 66.3-2.85 68.67-2.85L68.67-2.85Q70.77-2.85 72.27-3.58 73.77-4.3 74.7-5.53 75.62-6.75 75.95-8.25L75.95-8.25 76.57-5.5 75.8-5.5Q75.45-3.9 74.48-2.53 73.52-1.15 71.8-0.31 70.07 0.53 67.4 0.53ZM89.87-14.93L89.87-14.93 88.94-18.05 89.94-18.1Q90.74-21.2 92.69-22.99 94.64-24.78 97.87-24.78L97.87-24.78Q98.67-24.78 99.31-24.65 99.94-24.53 100.44-24.35L100.44-24.35 100.69-20.43Q100.07-20.63 99.31-20.75 98.54-20.88 97.62-20.88L97.62-20.88Q94.87-20.88 92.83-19.35 90.79-17.82 89.87-14.93ZM90.07-16.9L90.07 0 86.02 0 86.02-24.4 89.97-24.4 89.77-17.2 90.07-16.9ZM115.84 0L115.84 0 107.94 0 107.94-3.5 115.69-3.5Q119.94-3.5 122.08-5.81 124.22-8.13 124.22-12.43L124.22-12.43 124.22-19.55Q124.22-23.88 122.08-26.18 119.94-28.48 115.69-28.48L115.69-28.48 107.92-28.48 107.92-31.95 115.84-31.95Q122.04-31.95 125.22-28.76 128.39-25.58 128.39-19.58L128.39-19.58 128.39-12.4Q128.39-6.43 125.22-3.21 122.04 0 115.84 0ZM109.24-31.95L109.24 0 105.14 0 105.14-31.95 109.24-31.95ZM144.49 0.55L144.49 0.55Q138.91 0.55 136.09-2.18 133.26-4.9 133.26-9.98L133.26-9.98 133.26-14.33Q133.26-19.48 135.89-22.26 138.51-25.05 143.56-25.05L143.56-25.05Q146.96-25.05 149.24-23.79 151.51-22.53 152.66-20.2 153.81-17.88 153.81-14.65L153.81-14.65 153.81-13.75Q153.81-12.95 153.75-12.15 153.69-11.35 153.59-10.58L153.59-10.58 149.86-10.58Q149.91-11.78 149.93-12.85 149.94-13.93 149.94-14.83L149.94-14.83Q149.94-17.05 149.23-18.59 148.51-20.13 147.1-20.94 145.69-21.75 143.56-21.75L143.56-21.75Q140.41-21.75 138.84-19.93 137.26-18.1 137.26-14.7L137.26-14.7 137.26-12.38 137.29-11.88 137.29-9.55Q137.29-8.03 137.74-6.8 138.19-5.58 139.15-4.69 140.11-3.8 141.6-3.34 143.09-2.88 145.14-2.88L145.14-2.88Q147.51-2.88 149.56-3.5 151.61-4.13 153.41-5.2L153.41-5.2 153.04-1.7Q151.41-0.68 149.26-0.06 147.11 0.55 144.49 0.55ZM152.74-13.63L152.74-10.58 135.39-10.58 135.39-13.63 152.74-13.63ZM161.21-24.4L167.96-2.78 168.56-2.78 175.31-24.4 179.51-24.4 171.59 0 164.94 0 157.01-24.4 161.21-24.4Z" opacity="1" transform="matrix(1,0,0,1,0,0)" fill="#e8e7d5" class="wordmark-text-0" data-fill-palette-color="quaternary" id="text-0"></path></svg></g></svg></g></svg></g></svg></g><g transform="matrix(1,0,0,1,70.45275087324846,0)"><svg viewBox="0 0 72.25293948066016 53.78658082987506" height="53.78658082987506" width="72.25293948066016"><g><svg xmlns="http://www.w3.org/2000/svg" xmlns:xlink="http://www.w3.org/1999/xlink" xml:space="preserve" version="1.1" style="shape-rendering:geometricPrecision;text-rendering:geometricPrecision;image-rendering:optimizeQuality;" viewBox="44.93671530403779 141.64 756.8032846959622 563.38" x="0" y="0" fill-rule="evenodd" clip-rule="evenodd" height="53.78658082987506" width="72.25293948066016" class="icon-icon-0" data-fill-palette-color="quaternary" id="icon-0"><g fill="#e8e7d5" data-fill-palette-color="quaternary"><path class="" d="M179.86 458.5H648.06V379.83C648.06 354.17 627.02 333.13 601.36 333.13H226.56C200.9 333.13 179.86 354.17 179.86 379.83zM628.19 529.71C656.87 529.71 680.11 552.95 680.11 581.63S656.87 633.56 628.19 633.56C599.52 633.56 576.26 610.31 576.26 581.63S599.52 529.71 628.19 529.71M485.48 529.71C514.16 529.71 537.41 552.95 537.41 581.63S514.16 633.56 485.48 633.56C456.81 633.56 433.55 610.31 433.55 581.63S456.81 529.71 485.48 529.71M342.78 529.71C371.45 529.71 394.7 552.95 394.7 581.63S371.45 633.56 342.78 633.56C314.1 633.56 290.84 610.31 290.84 581.63S314.1 529.71 342.78 529.71M200.08 529.71C228.75 529.71 252 552.95 252 581.63S228.75 633.56 200.08 633.56C171.4 633.56 148.14 610.31 148.14 581.63S171.4 529.71 200.08 529.71M163.99 519.73C91.37 519.73 92.12 643.79 163.99 643.79H664.64C737.28 643.79 736.51 519.73 664.64 519.73zM163.99 492.27H664.64C773.56 492.27 772.59 671.24 664.64 671.24H163.99C55.57 671.24 55.49 492.27 163.99 492.27M463.79 218.65C484.85 218.65 501.93 235.72 501.93 256.78S484.85 294.91 463.79 294.91 425.67 277.84 425.67 256.78 442.73 218.65 463.79 218.65M705.72 189.64L713.62 219.14 768.72 208.24 761.12 175.22zM686.67 224.47L679.19 196.56 547.29 230.91C550.23 237.24 552.71 243.81 554.71 250.59zM532.86 206.41L781.5 141.64 801.74 229.65 559.88 277.51C560.75 286.88 563.06 296.29 563.06 305.68H601.36C642.17 305.68 675.51 339.02 675.51 379.83V458.81C823.56 469.7 816.71 705.02 666.96 705.02H160.96C11.21 705.02 4.36 469.7 152.42 458.81V379.83C152.42 339.02 185.76 305.68 226.56 305.68H267.41C267.41 145.38 450.06 93.07 532.86 206.41M294.86 305.68H533.97C533.97 131.04 294.86 128.63 294.86 305.68M666.96 485.94H160.96C42.64 485.94 42.64 677.58 160.96 677.58H666.96C785.28 677.58 785.28 485.94 666.96 485.94" fill="#e8e7d5" fill-rule="nonzero" data-fill-palette-color="quaternary"></path></g></svg></g></svg></g><g></g></svg></g></svg></g></svg></g></svg></g><defs></defs></svg><rect width="342.8515585177538" height="342.8515585177538" fill="none" stroke="none" visibility="hidden"></rect></g></svg></g></svg>